<svg width="24" height="24" viewBox="0 0 24 24" fill="none" xmlns="http://www.w3.org/2000/svg">
		<path d="M12 0.922852C5.86156 0.922852 0.923096 5.86131 0.923096 11.9998C0.923096 18.1382 5.86156 23.0767 12 23.0767C18.1385 23.0767 23.0769 18.1382 23.0769 11.9998C23.0769 5.86131 18.1385 0.922852 12 0.922852ZM18.1846 9.23054L11.1231 16.3844C10.8462 16.6613 10.3846 16.6613 10.1077 16.3844L6.23079 12.4613C5.95387 12.1844 5.95387 11.7229 6.23079 11.4459L7.24617 10.4305C7.5231 10.1536 7.98463 10.1536 8.26156 10.4305L10.2923 12.5075C10.4769 12.6921 10.8 12.6921 10.9846 12.5075L16.1539 7.15362C16.4308 6.8767 16.8923 6.8767 17.1693 7.15362L18.1846 8.16901C18.5077 8.44593 18.5077 8.90747 18.1846 9.23054Z" fill="#00A651"/>
</svg>
